<svg width="251" height="91" viewBox="0 0 251 91" fill="none" xmlns="http://www.w3.org/2000/svg">
<path d="M150.5 40.4998L126 15.9998L102 39.9998" stroke="white" stroke-width="2" stroke-linecap="round" stroke-linejoin="round"/>
<path d="M150.5 25.4998L126 0.999754L102 24.9998" stroke="white" stroke-width="2" stroke-linecap="round" stroke-linejoin="round"/>
<path d="M3.32799 90.5002V68.1002H20.992V90.5002H19.328V69.6362H4.99199V90.5002H3.32799ZM40.5045 88.3562C38.9045 90.0416 36.9098 90.8842 34.5205 90.8842C32.1312 90.8842 30.1365 90.0522 28.5365 88.3882C26.9578 86.7242 26.1685 84.7296 26.1685 82.4042V82.3402C26.1685 80.0149 26.9685 78.0096 28.5685 76.3242C30.1898 74.6389 32.1952 73.7962 34.5845 73.7962C36.9738 73.7962 38.9578 74.6282 40.5365 76.2922C42.1365 77.9562 42.9365 79.9509 42.9365 82.2762V82.3402C42.9365 84.6656 42.1258 86.6709 40.5045 88.3562ZM34.5845 89.4122C36.5045 89.4122 38.0938 88.7296 39.3525 87.3642C40.6112 85.9989 41.2405 84.3456 41.2405 82.4042V82.3402C41.2405 80.3562 40.5898 78.6816 39.2885 77.3162C37.9872 75.9509 36.3978 75.2682 34.5205 75.2682C32.6005 75.2682 31.0112 75.9509 29.7525 77.3162C28.4938 78.6816 27.8645 80.3349 27.8645 82.2762V82.3402C27.8645 84.3242 28.5152 85.9989 29.8165 87.3642C31.1178 88.7296 32.7072 89.4122 34.5845 89.4122ZM54.3047 74.0522L61.9207 90.5002H60.0967L53.5687 76.0362L47.0407 90.5002H45.2807L52.8967 74.0522H54.3047ZM72.2622 90.8842C70.0649 90.8842 68.1769 90.0949 66.5982 88.5162C65.0409 86.9162 64.2622 84.8682 64.2622 82.3722V82.3082C64.2622 79.9402 64.9982 77.9349 66.4702 76.2922C67.9636 74.6282 69.8089 73.7962 72.0062 73.7962C74.2462 73.7962 76.0489 74.6069 77.4142 76.2282C78.8009 77.8496 79.4942 79.8869 79.4942 82.3402C79.4942 82.5962 79.4836 82.8096 79.4622 82.9802H65.9262C66.0542 84.9429 66.7369 86.5109 67.9742 87.6842C69.2116 88.8362 70.6622 89.4122 72.3262 89.4122C74.4382 89.4122 76.3049 88.5589 77.9262 86.8522L79.0142 87.8122C77.1156 89.8602 74.8649 90.8842 72.2622 90.8842ZM65.9262 81.5722H77.7982C77.6489 79.7802 77.0729 78.2762 76.0702 77.0602C75.0889 75.8442 73.7129 75.2362 71.9422 75.2362C70.3422 75.2362 68.9662 75.8442 67.8142 77.0602C66.6836 78.2549 66.0542 79.7589 65.9262 81.5722ZM73.5102 71.4602V68.9002H75.7182V71.4602H73.5102ZM68.2942 71.4602V68.9002H70.5022V71.4602H68.2942ZM88.3407 90.5002V75.6202H81.3007V74.1802H96.9487V75.6202H89.9087V90.5002H88.3407ZM110.351 90.5002V74.1802H118.511C120.218 74.1802 121.551 74.5536 122.511 75.3002C123.492 76.0256 123.983 77.0496 123.983 78.3722V78.4042C123.983 80.3456 122.927 81.6149 120.815 82.2122C123.332 82.7669 124.591 84.0896 124.591 86.1802V86.2122C124.591 87.5562 124.047 88.6122 122.959 89.3802C121.892 90.1482 120.42 90.5216 118.543 90.5002H110.351ZM111.919 81.5402H118.191C119.514 81.5402 120.527 81.2629 121.231 80.7082C121.956 80.1536 122.319 79.3962 122.319 78.4362V78.4042C122.319 77.5509 121.978 76.8682 121.295 76.3562C120.634 75.8442 119.695 75.5989 118.479 75.6202H111.919V81.5402ZM111.919 82.9482V89.0602H118.575C119.962 89.0602 121.028 88.8042 121.775 88.2922C122.543 87.7589 122.927 87.0549 122.927 86.1802V86.1482C122.927 85.1669 122.522 84.3882 121.711 83.8122C120.9 83.2149 119.748 82.9269 118.255 82.9482H111.919ZM139.07 90.5002V74.1802H140.638V81.5402H151.806V74.1802H153.374V90.5002H151.806V82.9802H140.638V90.5002H139.07ZM164.28 90.8842C162.616 90.8842 161.144 90.4362 159.864 89.5402C158.605 88.6229 157.976 87.3642 157.976 85.7642V85.7002C157.976 84.0149 158.626 82.7136 159.928 81.7962C161.229 80.8576 162.957 80.3882 165.112 80.3882C166.946 80.3882 168.749 80.6229 170.52 81.0922V80.3882C170.52 78.7456 170.05 77.5082 169.112 76.6762C168.173 75.8229 166.85 75.3962 165.144 75.3962C163.437 75.3962 161.73 75.8336 160.024 76.7082L159.448 75.3322C161.389 74.3936 163.32 73.9242 165.24 73.9242C167.48 73.9242 169.197 74.5216 170.392 75.7162C171.501 76.8256 172.056 78.3616 172.056 80.3242V90.5002H170.52V87.7802C169.005 89.8496 166.925 90.8842 164.28 90.8842ZM164.376 89.4122C166.082 89.4122 167.533 88.9429 168.728 88.0042C169.944 87.0442 170.552 85.8389 170.552 84.3882V82.5322C168.632 82.0416 166.786 81.7962 165.016 81.7962C163.309 81.7962 161.986 82.1376 161.048 82.8202C160.109 83.5029 159.64 84.4309 159.64 85.6042V85.6682C159.64 86.7989 160.098 87.7056 161.016 88.3882C161.954 89.0709 163.074 89.4122 164.376 89.4122ZM188.738 90.5002V84.4522C186.733 84.9642 184.984 85.2202 183.49 85.2202C179.074 85.2202 176.866 83.1936 176.866 79.1402V74.1802H178.434V79.0442C178.434 80.7082 178.85 81.9029 179.682 82.6282C180.514 83.3536 181.826 83.7162 183.618 83.7162C185.261 83.7162 186.968 83.4602 188.738 82.9482V74.1802H190.306V90.5002H188.738ZM201.217 90.8842C199.553 90.8842 198.081 90.4362 196.801 89.5402C195.543 88.6229 194.913 87.3642 194.913 85.7642V85.7002C194.913 84.0149 195.564 82.7136 196.865 81.7962C198.167 80.8576 199.895 80.3882 202.049 80.3882C203.884 80.3882 205.687 80.6229 207.457 81.0922V80.3882C207.457 78.7456 206.988 77.5082 206.049 76.6762C205.111 75.8229 203.788 75.3962 202.081 75.3962C200.375 75.3962 198.668 75.8336 196.961 76.7082L196.385 75.3322C198.327 74.3936 200.257 73.9242 202.177 73.9242C204.417 73.9242 206.135 74.5216 207.329 75.7162C208.439 76.8256 208.993 78.3616 208.993 80.3242V90.5002H207.457V87.7802C205.943 89.8496 203.863 90.8842 201.217 90.8842ZM201.313 89.4122C203.02 89.4122 204.471 88.9429 205.665 88.0042C206.881 87.0442 207.489 85.8389 207.489 84.3882V82.5322C205.569 82.0416 203.724 81.7962 201.953 81.7962C200.247 81.7962 198.924 82.1376 197.985 82.8202C197.047 83.5029 196.577 84.4309 196.577 85.6042V85.6682C196.577 86.7989 197.036 87.7056 197.953 88.3882C198.892 89.0709 200.012 89.4122 201.313 89.4122ZM221.992 74.0522L229.608 90.5002H227.784L221.256 76.0362L214.728 90.5002H212.968L220.584 74.0522H221.992ZM246.286 88.3562C244.686 90.0416 242.691 90.8842 240.302 90.8842C237.912 90.8842 235.918 90.0522 234.318 88.3882C232.739 86.7242 231.95 84.7296 231.95 82.4042V82.3402C231.95 80.0149 232.75 78.0096 234.35 76.3242C235.971 74.6389 237.976 73.7962 240.366 73.7962C242.755 73.7962 244.739 74.6282 246.318 76.2922C247.918 77.9562 248.718 79.9509 248.718 82.2762V82.3402C248.718 84.6656 247.907 86.6709 246.286 88.3562ZM240.366 89.4122C242.286 89.4122 243.875 88.7296 245.134 87.3642C246.392 85.9989 247.022 84.3456 247.022 82.4042V82.3402C247.022 80.3562 246.371 78.6816 245.07 77.3162C243.768 75.9509 242.179 75.2682 240.302 75.2682C238.382 75.2682 236.792 75.9509 235.534 77.3162C234.275 78.6816 233.646 80.3349 233.646 82.2762V82.3402C233.646 84.3242 234.296 85.9989 235.598 87.3642C236.899 88.7296 238.488 89.4122 240.366 89.4122Z" fill="white"/>
</svg>
